<svg width="960" height="540" viewBox="0 0 960 540" fill="none" xmlns="http://www.w3.org/2000/svg">
  <defs>
    <linearGradient id="bg" x1="120" y1="60" x2="820" y2="500" gradientUnits="userSpaceOnUse">
      <stop stop-color="#a855f7" />
      <stop offset="0.5" stop-color="#6366f1" />
      <stop offset="1" stop-color="#38bdf8" />
    </linearGradient>
    <radialGradient id="halo" cx="0" cy="0" r="1" gradientTransform="translate(480 260) rotate(90) scale(230 480)" gradientUnits="userSpaceOnUse">
      <stop stop-color="rgba(192, 132, 252, 0.55)" />
      <stop offset="1" stop-color="rgba(30, 58, 138, 0)" />
    </radialGradient>
  </defs>
  <rect width="960" height="540" rx="36" fill="#020617" />
  <rect x="30" y="30" width="900" height="480" rx="32" fill="url(#bg)" />
  <circle cx="480" cy="270" r="220" fill="url(#halo)" />
  <path d="M480 130C530 130 560 172 574 208C596 264 581 320 540 356C511 381 510 427 510 450H450C450 428 446 382 420 356C380 316 364 256 386 202C400 168 430 130 480 130Z" fill="rgba(15, 23, 42, 0.85)" />
  <path d="M468 186C462 204 456 240 456 268C456 308 468 344 480 344C492 344 504 308 504 268C504 240 498 204 492 186C486 170 474 170 468 186Z" fill="rgba(59, 130, 246, 0.55)" />
  <path d="M400 318C426 350 452 366 480 366C508 366 534 350 560 318" stroke="rgba(125, 211, 252, 0.55)" stroke-width="8" stroke-linecap="round" />
  <g opacity="0.4" stroke="#f8fafc" stroke-width="10" stroke-linecap="round">
    <path d="M260 180L300 220" />
    <path d="M700 180L660 220" />
    <path d="M240 330L300 320" />
    <path d="M720 330L660 320" />
  </g>
  <rect x="300" y="380" width="360" height="18" rx="9" fill="rgba(15, 23, 42, 0.4)" />
  <rect x="320" y="410" width="320" height="14" rx="7" fill="rgba(15, 23, 42, 0.3)" />
</svg>
