<svg width="960" height="540" viewBox="0 0 960 540" fill="none" xmlns="http://www.w3.org/2000/svg">
  <defs>
    <linearGradient id="bg" x1="140" y1="40" x2="820" y2="500" gradientUnits="userSpaceOnUse">
      <stop stop-color="#60a5fa" />
      <stop offset="0.5" stop-color="#6366f1" />
      <stop offset="1" stop-color="#c084fc" />
    </linearGradient>
    <linearGradient id="wave" x1="0" y1="420" x2="960" y2="420" gradientUnits="userSpaceOnUse">
      <stop stop-color="rgba(255,255,255,0.2)" />
      <stop offset="0.5" stop-color="rgba(255,255,255,0.55)" />
      <stop offset="1" stop-color="rgba(255,255,255,0.2)" />
    </linearGradient>
  </defs>
  <rect width="960" height="540" rx="36" fill="url(#bg)" />
  <g opacity="0.9">
    <path d="M80 420C180 360 280 480 380 420C480 360 580 460 680 420C780 380 880 430 980 380" stroke="url(#wave)" stroke-width="22" stroke-linecap="round" />
    <path d="M40 360C140 300 240 420 340 360C440 300 540 400 640 360C740 320 840 370 940 320" stroke="url(#wave)" stroke-width="12" stroke-linecap="round" opacity="0.6" />
  </g>
  <circle cx="320" cy="200" r="96" fill="rgba(15, 23, 42, 0.7)" stroke="rgba(255,255,255,0.4)" stroke-width="6" />
  <path d="M280 200L340 240V160L280 200Z" fill="#f8fafc" fill-opacity="0.8" />
  <circle cx="480" cy="260" r="180" fill="rgba(15, 23, 42, 0.35)" />
  <g stroke="#f8fafc" stroke-width="10" stroke-linecap="round" opacity="0.75">
    <path d="M420 200L420 320" />
    <path d="M460 180L460 340" />
    <path d="M500 220L500 300" />
    <path d="M540 160L540 360" />
    <path d="M580 210L580 310" />
  </g>
  <rect x="620" y="140" width="60" height="260" rx="30" fill="rgba(15, 23, 42, 0.3)" />
  <rect x="700" y="170" width="60" height="200" rx="30" fill="rgba(15, 23, 42, 0.2)" />
  <rect x="780" y="200" width="60" height="160" rx="30" fill="rgba(15, 23, 42, 0.2)" />
  <rect x="260" y="360" width="440" height="16" rx="8" fill="rgba(15, 23, 42, 0.35)" />
  <rect x="300" y="388" width="360" height="12" rx="6" fill="rgba(15, 23, 42, 0.25)" />
</svg>
