<svg width="960" height="540" viewBox="0 0 960 540" fill="none" xmlns="http://www.w3.org/2000/svg">
  <defs>
    <linearGradient id="bg" x1="140" y1="40" x2="820" y2="520" gradientUnits="userSpaceOnUse">
      <stop stop-color="#22c55e" />
      <stop offset="0.5" stop-color="#0ea5e9" />
      <stop offset="1" stop-color="#38bdf8" />
    </linearGradient>
    <radialGradient id="spot" cx="0" cy="0" r="1" gradientTransform="translate(480 270) rotate(90) scale(280 500)" gradientUnits="userSpaceOnUse">
      <stop stop-color="rgba(255,255,255,0.4)" />
      <stop offset="1" stop-color="rgba(255,255,255,0)" />
    </radialGradient>
  </defs>
  <rect width="960" height="540" rx="36" fill="url(#bg)" />
  <rect x="150" y="90" width="660" height="420" rx="32" fill="rgba(15, 23, 42, 0.55)" stroke="rgba(255,255,255,0.25)" stroke-width="2" />
  <rect x="190" y="130" width="580" height="340" rx="28" fill="rgba(15, 23, 42, 0.75)" stroke="rgba(255,255,255,0.12)" stroke-dasharray="10 12" />
  <rect x="230" y="170" width="500" height="260" rx="24" fill="rgba(248, 250, 252, 0.08)" stroke="rgba(255,255,255,0.3)" />
  <g opacity="0.85">
    <rect x="250" y="190" width="160" height="220" rx="20" fill="#f8fafc" fill-opacity="0.18" />
    <rect x="430" y="190" width="120" height="220" rx="20" fill="#f8fafc" fill-opacity="0.25" />
    <rect x="570" y="190" width="120" height="220" rx="20" fill="#f8fafc" fill-opacity="0.18" />
  </g>
  <g opacity="0.65" fill="#f8fafc">
    <rect x="280" y="210" width="40" height="12" rx="6" />
    <rect x="340" y="210" width="34" height="12" rx="6" fill-opacity="0.6" />
    <rect x="460" y="210" width="40" height="12" rx="6" />
    <rect x="520" y="210" width="34" height="12" rx="6" fill-opacity="0.6" />
    <rect x="600" y="210" width="34" height="12" rx="6" fill-opacity="0.6" />
  </g>
  <circle cx="480" cy="270" r="240" fill="url(#spot)" />
  <path d="M480 160L502 204L550 210L512 244L522 292L480 266L438 292L448 244L410 210L458 204L480 160Z" fill="#f8fafc" fill-opacity="0.55" />
  <rect x="272" y="360" width="416" height="12" rx="6" fill="rgba(248,250,252,0.35)" />
  <rect x="350" y="384" width="260" height="12" rx="6" fill="rgba(248,250,252,0.22)" />
</svg>
